<?xml version="1.0" encoding="iso-8859-1"?>
<!-- Generator: Adobe Illustrator 16.0.0, SVG Export Plug-In . SVG Version: 6.00 Build 0)  -->
<!DOCTYPE svg PUBLIC "-//W3C//DTD SVG 1.1//EN" "http://www.w3.org/Graphics/SVG/1.1/DTD/svg11.dtd">
<svg xmlns="http://www.w3.org/2000/svg" xmlns:xlink="http://www.w3.org/1999/xlink" version="1.1" id="Capa_1" x="0px" y="0px" width="512px" height="512px" viewBox="0 0 482.801 482.801" style="enable-background:new 0 0 482.801 482.801;" xml:space="preserve">
<g>
	<path d="M309.4,27.2c-0.081,20.4-16.904,47.6-27.104,57.8c-10.2,10.2-27.295,10.2-40.896,10.2c-13.6,0-30.695,0-40.896-10.2   c-10.2-10.2-27.03-37.4-27.104-57.8C173.305,3.4,214.908,0,241.4,0C267.894,0,309.496,3.4,309.4,27.2z M206.856,111.602   l-23.807,270.789c-1.815,20.672,5.032,41.168,18.918,56.59l39.44,43.82l41.024-43.188c14.974-15.756,22.345-37.25,20.21-58.881   L276.02,111.527c-0.354-3.475-3.284-6.127-6.779-6.127h-55.611C210.107,105.4,207.162,108.093,206.856,111.602z" fill="#FFFFFF"/>
</g>
<g>
</g>
<g>
</g>
<g>
</g>
<g>
</g>
<g>
</g>
<g>
</g>
<g>
</g>
<g>
</g>
<g>
</g>
<g>
</g>
<g>
</g>
<g>
</g>
<g>
</g>
<g>
</g>
<g>
</g>
</svg>
