<?xml version="1.0" encoding="iso-8859-1"?>
<!-- Generator: Adobe Illustrator 18.0.0, SVG Export Plug-In . SVG Version: 6.00 Build 0)  -->
<!DOCTYPE svg PUBLIC "-//W3C//DTD SVG 1.1//EN" "http://www.w3.org/Graphics/SVG/1.1/DTD/svg11.dtd">
<svg xmlns="http://www.w3.org/2000/svg" xmlns:xlink="http://www.w3.org/1999/xlink" version="1.1" id="Capa_1" x="0px" y="0px" viewBox="0 0 312.643 312.643" style="enable-background:new 0 0 312.643 312.643;" xml:space="preserve" width="512px" height="512px">
<g>
	<path d="M303.643,259.407h-5.251L167.111,60.894l7.733-11.694c2.742-4.146,1.604-9.73-2.542-12.472   c-4.147-2.741-9.73-1.603-12.471,2.542l-3.51,5.307l-3.51-5.307c-2.742-4.145-8.325-5.283-12.471-2.542   c-4.146,2.741-5.284,8.325-2.542,12.472l7.733,11.694L14.251,259.407H9c-4.971,0-9,4.029-9,9s4.029,9,9,9h10.068   c0.005,0,0.009,0.001,0.014,0.001c0.005,0,0.011-0.001,0.016-0.001h274.447c0.005,0,0.011,0.001,0.016,0.001   c0.005,0,0.009-0.001,0.014-0.001h10.068c4.971,0,9-4.029,9-9S308.613,259.407,303.643,259.407z M156.321,77.21l120.49,182.197   h-52.936l-60.047-90.8c-1.667-2.52-4.486-4.035-7.507-4.035s-5.84,1.516-7.507,4.035l-60.047,90.8H35.832L156.321,77.21z    M202.295,259.407h-91.947l45.974-69.519L202.295,259.407z" fill="#FFFFFF"/>
</g>
<g>
</g>
<g>
</g>
<g>
</g>
<g>
</g>
<g>
</g>
<g>
</g>
<g>
</g>
<g>
</g>
<g>
</g>
<g>
</g>
<g>
</g>
<g>
</g>
<g>
</g>
<g>
</g>
<g>
</g>
</svg>
